<?xml version="1.0" encoding="utf-8"?><svg xmlns="http://www.w3.org/2000/svg" xmlns:xlink="http://www.w3.org/1999/xlink"><symbol viewBox="0 0 16 16" id="cross" xmlns="http://www.w3.org/2000/svg"><path d="M16 1.4L14.6 0 8 6.6 1.4 0 0 1.4 6.6 8 0 14.6 1.4 16 8 9.4l6.6 6.6 1.4-1.4L9.4 8 16 1.4z"/></symbol><symbol viewBox="0 0 15 26" id="fb" xmlns="http://www.w3.org/2000/svg"><path d="M14.435.005L10.837 0C6.795 0 4.183 2.511 4.183 6.399v2.95H.566c-.313 0-.566.237-.566.53v4.275c0 .293.253.53.566.53h3.617V25.47c0 .293.253.53.566.53h4.72c.312 0 .565-.238.565-.53V14.684h4.23c.313 0 .566-.237.566-.53l.001-4.275a.52.52 0 00-.165-.375.586.586 0 00-.4-.155h-4.232V6.848c0-1.202.306-1.812 1.977-1.812l2.424-.001c.312 0 .565-.238.565-.53V.535c0-.292-.253-.529-.565-.53z"/></symbol><symbol viewBox="0 0 26 26" id="instagram" xmlns="http://www.w3.org/2000/svg"><path d="M17.875 0h-9.75A8.126 8.126 0 000 8.125v9.75A8.126 8.126 0 008.125 26h9.75A8.126 8.126 0 0026 17.875v-9.75A8.126 8.126 0 0017.875 0zm5.688 17.875a5.694 5.694 0 01-5.688 5.688h-9.75a5.694 5.694 0 01-5.688-5.688v-9.75a5.694 5.694 0 015.688-5.688h9.75a5.694 5.694 0 015.688 5.688v9.75z"/><path d="M13 6.5a6.5 6.5 0 100 13 6.5 6.5 0 000-13zm0 10.563A4.068 4.068 0 018.937 13 4.067 4.067 0 0113 8.937 4.067 4.067 0 0117.063 13 4.068 4.068 0 0113 17.063zm6.985-10.184a.866.866 0 100-1.732.866.866 0 000 1.732z"/></symbol><symbol viewBox="0 0 28 20" id="menu-btn" xmlns="http://www.w3.org/2000/svg"><path d="M.667 8.333h20v3.334h-20V8.333zM.667 0h26.666v3.333H.667V0zm0 20h12.058v-3.333H.667V20z"/></symbol><symbol viewBox="0 0 26 14" id="vk" xmlns="http://www.w3.org/2000/svg"><path d="M25.862 12.643a1.654 1.654 0 00-.088-.16c-.451-.766-1.313-1.707-2.586-2.823l-.026-.025-.014-.013-.014-.013h-.013c-.578-.52-.943-.869-1.096-1.048-.28-.34-.343-.685-.19-1.035.108-.264.514-.821 1.218-1.673.37-.451.663-.813.88-1.086 1.561-1.959 2.238-3.21 2.03-3.756l-.08-.127c-.054-.077-.194-.147-.42-.211-.226-.064-.514-.075-.866-.032l-3.899.025a.535.535 0 00-.27.007L20.25.71l-.068.032-.053.039a.59.59 0 00-.15.134.868.868 0 00-.134.223 20.36 20.36 0 01-1.45 2.875c-.333.528-.64.986-.92 1.373-.28.388-.514.673-.703.856-.19.183-.361.33-.515.44-.153.112-.27.158-.352.141a10.423 10.423 0 01-.23-.05.87.87 0 01-.305-.314 1.345 1.345 0 01-.155-.498 5.215 5.215 0 01-.048-.518c-.004-.144-.002-.349.007-.613.01-.264.014-.443.014-.536 0-.324.006-.675.02-1.054.014-.38.024-.68.034-.901.009-.222.013-.456.013-.703 0-.247-.016-.44-.047-.581a1.906 1.906 0 00-.142-.409.701.701 0 00-.277-.307 1.618 1.618 0 00-.454-.172C13.858.066 13.25.01 12.508.002 10.83-.015 9.751.087 9.273.309c-.19.093-.361.221-.514.383-.163.187-.185.29-.068.306.541.077.925.26 1.15.55l.082.153c.063.11.126.307.19.588.063.28.103.592.121.932a9.376 9.376 0 010 1.597 17.54 17.54 0 01-.129 1.035c-.04.247-.101.447-.182.6a2.495 2.495 0 01-.163.281.227.227 0 01-.067.064c-.118.043-.24.064-.366.064s-.28-.06-.46-.179a3.185 3.185 0 01-.562-.492 6.595 6.595 0 01-.657-.875 15.013 15.013 0 01-.758-1.328l-.216-.37c-.135-.24-.32-.586-.555-1.042a19.527 19.527 0 01-.623-1.323.85.85 0 00-.325-.408L5.104.806a.945.945 0 00-.217-.108 1.504 1.504 0 00-.311-.083L.866.64C.489.64.23.721.096.883L.04.96a.394.394 0 00-.04.204.97.97 0 00.081.345 41.17 41.17 0 001.767 3.475C2.484 6.1 3.037 7 3.506 7.68c.47.681.948 1.324 1.435 1.929.487.604.81.992.968 1.162.158.17.282.298.372.384l.339.306c.216.205.534.45.954.735.42.285.884.566 1.394.843a7.83 7.83 0 001.78.677 6.503 6.503 0 001.977.211h1.557c.316-.026.555-.12.717-.281l.054-.064c.036-.05.07-.13.101-.236a1.22 1.22 0 00.048-.351c-.01-.367.02-.697.088-.99.067-.294.144-.516.23-.665a1.667 1.667 0 01.521-.562.891.891 0 01.108-.045c.217-.068.472-.002.766.199.293.2.568.447.825.74.258.295.567.624.928.99.36.367.677.64.947.818l.27.154c.182.102.416.196.705.28.288.086.541.107.758.065l3.465-.051c.343 0 .61-.054.799-.16.19-.107.302-.224.338-.351a.934.934 0 00.007-.435 1.534 1.534 0 00-.095-.338z"/></symbol><symbol viewBox="0 0 26 18" id="youtube" xmlns="http://www.w3.org/2000/svg"><path d="M20.6 0H5.4C2.418 0 0 2.365 0 5.283v7.434C0 15.635 2.418 18 5.4 18h15.2c2.982 0 5.4-2.365 5.4-5.283V5.283C26 2.365 23.582 0 20.6 0zm-3.652 9.362l-7.11 3.317a.285.285 0 01-.408-.252V5.585c0-.208.225-.343.415-.25l7.11 3.526a.277.277 0 01-.007.5z"/></symbol></svg>