<?xml version="1.0" encoding="utf-8"?><svg xmlns="http://www.w3.org/2000/svg" xmlns:xlink="http://www.w3.org/1999/xlink"><symbol viewBox="0 0 42 40" id="badge" xmlns="http://www.w3.org/2000/svg"><path d="M38.552 25.795c-.645 1.985.235 4.766-.97 6.418-1.219 1.669-4.15 1.687-5.823 2.902-1.657 1.202-2.574 3.985-4.564 4.63-1.92.622-4.292-1.072-6.421-1.072-2.129 0-4.5 1.694-6.421 1.072-1.991-.645-2.907-3.428-4.564-4.631-1.674-1.215-4.604-1.232-5.822-2.901-1.207-1.653-.327-4.434-.972-6.419-.624-1.917-2.996-3.64-2.996-5.763 0-2.124 2.371-3.848 2.995-5.763.646-1.986-.234-4.766.972-6.418 1.218-1.67 4.148-1.687 5.821-2.903C11.445 3.744 12.361.962 14.352.318c1.92-.622 4.293 1.071 6.421 1.071 2.129 0 4.501-1.693 6.421-1.071 1.991.644 2.907 3.426 4.564 4.629 1.673 1.216 4.605 1.233 5.823 2.903 1.206 1.652.326 4.432.971 6.418.624 1.916 2.995 3.639 2.997 5.763 0 2.123-2.372 3.848-2.997 5.764zM20.773 5.49c-8.038 0-14.577 6.523-14.577 14.541 0 8.019 6.539 14.541 14.577 14.541S35.35 28.05 35.35 20.031c0-8.018-6.539-14.541-14.577-14.541zm0 26.708c-6.726 0-12.197-5.458-12.197-12.167S14.047 7.865 20.773 7.865c6.726 0 12.197 5.457 12.197 12.166 0 6.709-5.471 12.167-12.197 12.167zm8.353-14.388a.737.737 0 00-.652-.506l-5.119-.33-1.898-4.754a.735.735 0 00-1.367 0l-1.897 4.754-5.119.33a.736.736 0 00-.652.506.73.73 0 00.229.791l3.947 3.27-1.267 4.958a.733.733 0 00.28.775.742.742 0 00.826.027l4.336-2.734 4.337 2.734a.736.736 0 001.106-.802l-1.267-4.958 3.947-3.27a.735.735 0 00.23-.791z"/></symbol><symbol viewBox="0 0 21 17" id="image" xmlns="http://www.w3.org/2000/svg"><path d="M20.51 14.13h-2.406v2.393a.478.478 0 01-.482.474H.469a.478.478 0 01-.482-.474V4.321c0-.261.216-.473.482-.473h2.407V1.455c0-.262.215-.474.481-.474H20.51c.266 0 .482.212.482.474v12.202a.478.478 0 01-.482.473zm-18.056.821c.03-.656.179-1.539.422-2.457V5.118H1.281v10.608H16.81V14.13h-1.438c.117.332.207.623.265.825l-13.183-.004zM19.698 2.252H4.169V12.86h15.529V2.252zM10.924 6.52c.77 1.085 1.441 2.043 2.006 2.646.93.914 1.725-.471 2.7-.927 1.422-.665 2.593 2.792 2.895 3.849l-13.183-.003c.083-1.801 1.042-5.299 2.437-6.588 1.249-1.145 2.311-.143 3.145 1.023zm4.645-.313c-.895 0-1.621-.713-1.621-1.592 0-.879.726-1.592 1.621-1.592s1.621.713 1.621 1.592c0 .879-.726 1.592-1.621 1.592z"/></symbol><symbol viewBox="0 0 29 40" id="leaf" xmlns="http://www.w3.org/2000/svg"><path d="M24.214.398s-3.253 3.129-6.77 4.391C-8.602 14.133 2.383 32.341 2.741 32.401c0 0 1.461-2.522 3.434-3.961C18.694 19.312 21.239 8.804 21.239 8.804S18.43 21.448 7.291 29.315c-2.46 1.737-4.125 6.013-4.83 10.286 0 0 1.743-.698 2.493-.887.293-1.893.904-3.705 1.938-5.324 15.567 1.838 20.665-10.602 21.331-14.941C29.794 8.204 24.214.398 24.214.398z"/></symbol><symbol viewBox="0 0 15 14" id="link" xmlns="http://www.w3.org/2000/svg"><path d="M12.967 6.202l-2.571 2.57a3.634 3.634 0 01-5.139 0 3.67 3.67 0 01-.552-.733L5.9 6.844c.056-.056.127-.089.194-.128.082.282.226.55.448.771a1.82 1.82 0 002.57 0l2.569-2.569a1.819 1.819 0 000-2.57 1.82 1.82 0 00-2.569 0l-.914.915A4.557 4.557 0 005.88 3.01l1.947-1.947a3.635 3.635 0 015.14 5.139zm-6.795 4.226l-.915.914a1.82 1.82 0 01-2.57 0 1.82 1.82 0 010-2.57l2.57-2.57a1.82 1.82 0 012.57 0c.221.222.365.489.449.77.067-.038.136-.071.193-.128l1.194-1.193a3.563 3.563 0 00-.551-.733 3.633 3.633 0 00-5.14 0L1.403 7.487a3.635 3.635 0 005.139 5.14L8.49 10.68a4.563 4.563 0 01-2.318-.252z"/></symbol><symbol viewBox="0 0 22 16" id="photo-camera" xmlns="http://www.w3.org/2000/svg"><path d="M19.081 15.994H2.919a2.915 2.915 0 01-2.91-2.913V4.576a2.913 2.913 0 012.653-2.901c.13-.556.492-.935.924-.935h2.097c.43 0 .789.374.921.922H9.57l1.437-1.66h4.911l1.769 1.66h1.394a2.914 2.914 0 012.908 2.914v8.505a2.914 2.914 0 01-2.908 2.913zM2.641 6.513a.55.55 0 00-1.1 0v5.807a.55.55 0 001.1 0V6.513zm3.308-3.042a.58.58 0 00-.58-.581H3.878c-.32 0-.581.26-.581.581v.342c0 .32.261.58.581.58h1.491c.319 0 .58-.26.58-.58v-.342zm7.792.779a4.658 4.658 0 00-4.65 4.655 4.658 4.658 0 004.65 4.655 4.657 4.657 0 004.648-4.655 4.657 4.657 0 00-4.648-4.655zm0 7.918a3.265 3.265 0 01-3.259-3.263 3.264 3.264 0 013.259-3.262 3.263 3.263 0 010 6.525z"/></symbol><symbol viewBox="0 0 15 15" id="search" xmlns="http://www.w3.org/2000/svg"><path d="M13.977 12.501l-2.794-2.794a5.583 5.583 0 001.01-3.251c0-.777-.151-1.519-.452-2.228a5.742 5.742 0 00-1.222-1.833 5.75 5.75 0 00-1.833-1.223A5.647 5.647 0 006.457.72c-.777 0-1.519.151-2.228.452a5.729 5.729 0 00-1.833 1.223 5.729 5.729 0 00-1.223 1.833 5.642 5.642 0 00-.452 2.228c0 .777.151 1.52.452 2.229a5.75 5.75 0 001.223 1.833c.513.513 1.124.92 1.833 1.222a5.624 5.624 0 002.228.452 5.575 5.575 0 003.251-1.01l2.794 2.786a.97.97 0 00.734.309c.282 0 .527-.103.733-.309.206-.206.309-.451.309-.733a.995.995 0 00-.301-.734zM9.036 9.035c-.715.714-1.574 1.071-2.579 1.071-1.005 0-1.864-.357-2.578-1.071-.715-.715-1.072-1.574-1.072-2.579 0-1.005.357-1.864 1.072-2.578.714-.715 1.573-1.072 2.578-1.072s1.864.357 2.579 1.072c.714.714 1.071 1.573 1.071 2.578S9.75 8.32 9.036 9.035z"/></symbol><symbol viewBox="0 0 41 40" id="settings-work-tool" xmlns="http://www.w3.org/2000/svg"><path d="M35.223 15.061l-.194-.07-.754-1.807.082-.185c2.286-5.201 2.128-5.356 1.749-5.733l-3.048-2.985a.815.815 0 00-.533-.211c-.171 0-.69 0-5.192 2.046l-.181.081-1.856-.75-.075-.186c-2.117-5.26-2.334-5.26-2.86-5.26h-4.305c-.525 0-.764 0-2.727 5.27l-.074.192-1.847.756-.177-.074c-3.047-1.29-4.826-1.944-5.29-1.944a.815.815 0 00-.533.209L4.357 7.403c-.387.383-.547.543 1.858 5.636l.088.189-.756 1.805-.185.072C-.002 17.186-.002 17.388-.002 17.93v4.233c0 .543 0 .769 5.375 2.703l.192.068.756 1.8-.081.184c-2.285 5.203-2.14 5.343-1.751 5.732l3.043 2.989a.839.839 0 00.537.211c.17 0 .688 0 5.193-2.046l.18-.085 1.859.755.072.187c2.118 5.259 2.336 5.259 2.863 5.259h4.306c.541 0 .764 0 2.729-5.274l.074-.192 1.849-.751.177.072c3.045 1.293 4.822 1.945 5.283 1.945a.813.813 0 00.536-.208l3.056-2.999c.384-.385.544-.543-1.865-5.63l-.09-.191.754-1.798.181-.07c5.373-2.092 5.373-2.296 5.373-2.839v-4.23c0-.544 0-.768-5.376-2.694zM20.298 26.826c-3.846 0-6.976-3.081-6.976-6.866 0-3.783 3.13-6.86 6.976-6.86 3.845 0 6.975 3.077 6.975 6.86 0 3.784-3.13 6.866-6.975 6.866z"/></symbol><symbol viewBox="0 0 25 41" id="smartphone" xmlns="http://www.w3.org/2000/svg"><path d="M21.74 40.994H3.269c-1.799 0-3.26-1.438-3.26-3.207V4.101c0-1.77 1.461-3.209 3.26-3.209H21.74c1.798 0 3.259 1.439 3.259 3.209v33.686c0 1.769-1.461 3.207-3.259 3.207zm-9.236-1.203c.973 0 1.766-.78 1.766-1.737 0-.957-.793-1.738-1.766-1.738-.972 0-1.766.781-1.766 1.738s.794 1.737 1.766 1.737zm2.988-35.969a.796.796 0 00-.804-.791h-4.367a.796.796 0 00-.804.791v.022c0 .438.358.791.804.791h4.367a.796.796 0 00.804-.791v-.022zm6.791 3.487a.54.54 0 00-.543-.535H3.269a.54.54 0 00-.543.535v27.269a.54.54 0 00.543.534H21.74a.54.54 0 00.543-.534V7.309zm-2.711 25.13H5.437a.533.533 0 01-.538-.529v-.011c0-.293.24-.529.538-.529h14.135c.298 0 .538.236.538.529v.011a.534.534 0 01-.538.529zm0-3.208H5.437a.533.533 0 01-.538-.53v-.01c0-.292.24-.529.538-.529h14.135c.298 0 .538.237.538.529v.01c0 .293-.241.53-.538.53zm0-3.208H5.437a.533.533 0 01-.538-.53v-.01c0-.293.24-.529.538-.529h14.135c.298 0 .538.236.538.529v.01c0 .293-.241.53-.538.53zm0-3.208H5.437a.533.533 0 01-.538-.53v-.01c0-.293.24-.53.538-.53h14.135c.298 0 .538.237.538.53v.01c0 .293-.241.53-.538.53zm0-3.209H5.437a.532.532 0 01-.538-.529v-.011c0-.292.24-.529.538-.529h14.135c.298 0 .538.237.538.529v.011a.533.533 0 01-.538.529zm-.005-6.951h-1.629a.539.539 0 01-.544-.534v-1.604a.54.54 0 01.544-.535h1.629c.3 0 .543.24.543.535v1.604a.54.54 0 01-.543.534zm-4.346.001h-1.63a.54.54 0 01-.543-.535v-1.604a.54.54 0 01.543-.534h1.63c.299 0 .542.239.542.534v1.604a.54.54 0 01-.542.535zm-3.803 0h-1.63a.54.54 0 01-.543-.535v-1.604a.54.54 0 01.543-.534h1.63c.3 0 .543.239.543.534v1.604a.54.54 0 01-.543.535zm-4.346 0h-1.63a.54.54 0 01-.543-.535v-1.604c0-.295.243-.534.543-.534h1.63a.54.54 0 01.543.534v1.604a.54.54 0 01-.543.535zm-1.635 2.673h9.246c.297 0 .538.237.538.53v.01c0 .293-.241.53-.538.53H5.437a.533.533 0 01-.538-.53v-.01c0-.293.24-.53.538-.53z"/></symbol><symbol viewBox="0 0 18 20" id="video" xmlns="http://www.w3.org/2000/svg"><path d="M1.205 20h15.59c.664 0 1.207-.574 1.207-1.274V1.273c0-.7-.543-1.274-1.207-1.274H1.205c-.666 0-1.208.574-1.208 1.274v17.453c0 .7.542 1.274 1.208 1.274zM15.057 1.557c0-.211.165-.382.363-.382h1.131c.2 0 .362.171.362.382v1.23a.373.373 0 01-.362.383H15.42a.375.375 0 01-.363-.383v-1.23zm0 3.131c0-.212.165-.383.363-.383h1.131c.2 0 .362.171.362.383v1.23a.373.373 0 01-.362.383H15.42a.375.375 0 01-.363-.383v-1.23zm0 3.132c0-.211.165-.383.363-.383h1.131c.2 0 .362.172.362.383v1.231c0 .209-.162.382-.362.382H15.42a.376.376 0 01-.363-.382V7.82zm0 3.13c0-.211.165-.383.363-.383h1.131c.2 0 .362.172.362.383v1.231a.373.373 0 01-.362.383H15.42a.375.375 0 01-.363-.383V10.95zm0 3.131c0-.211.165-.383.363-.383h1.131c.2 0 .362.172.362.383v1.231c0 .21-.162.381-.362.381H15.42a.374.374 0 01-.363-.381v-1.231zm0 3.13c0-.21.165-.382.363-.382h1.131c.2 0 .362.172.362.382v1.233a.373.373 0 01-.362.381H15.42a.374.374 0 01-.363-.381v-1.233zM4.183 2.481c0-.212.163-.382.363-.382h8.908c.198 0 .362.17.362.382v6.093c0 .21-.164.383-.362.383H4.546a.375.375 0 01-.363-.383V2.481zm0 9.396c0-.21.163-.381.363-.381h8.908c.198 0 .362.171.362.381v5.633c0 .21-.164.382-.362.382H4.546a.374.374 0 01-.363-.382v-5.633zM1.086 1.557c0-.211.162-.382.362-.382H2.58c.199 0 .361.171.361.382v1.23c0 .212-.162.383-.361.383H1.448a.373.373 0 01-.362-.383v-1.23zm0 3.131c0-.212.162-.383.362-.383H2.58c.199 0 .361.171.361.383v1.23c0 .211-.162.383-.361.383H1.448a.373.373 0 01-.362-.383v-1.23zm0 3.132c0-.211.162-.383.362-.383H2.58c.199 0 .361.172.361.383v1.231c0 .209-.162.382-.361.382H1.448c-.2 0-.362-.173-.362-.382V7.82zm0 3.13c0-.211.162-.383.362-.383H2.58c.199 0 .361.172.361.383v1.231c0 .212-.162.383-.361.383H1.448a.373.373 0 01-.362-.383V10.95zm0 3.131c0-.211.162-.383.362-.383H2.58c.199 0 .361.172.361.383v1.231c0 .21-.162.381-.361.381H1.448a.372.372 0 01-.362-.381v-1.231zm0 3.13c0-.21.162-.382.362-.382H2.58c.199 0 .361.172.361.382v1.233a.373.373 0 01-.361.381H1.448a.372.372 0 01-.362-.381v-1.233z"/></symbol></svg>