<?xml version="1.0" encoding="utf-8"?><svg xmlns="http://www.w3.org/2000/svg" xmlns:xlink="http://www.w3.org/1999/xlink"><symbol viewBox="0 0 18 15" id="basket" xmlns="http://www.w3.org/2000/svg"><path d="M17.726 3.663h.001l-2.475 5.5a.824.824 0 01-.697.485l-7.128.475.412 1.176H15.6a1.651 1.651 0 11-1.65 1.651h-7.7a1.65 1.65 0 11-1.65-1.651h1.491L2.915 2.225h-1.89a.825.825 0 010-1.65H3.5c.36 0 .663.232.776.553l.003-.001.48 1.373h12.216a.825.825 0 01.751 1.163zM5.337 4.15l1.525 4.357 7.089-.473 1.748-3.884H5.337z"/></symbol><symbol viewBox="0 0 32 32" id="bullseye" xmlns="http://www.w3.org/2000/svg"><path d="M16 31.998c-8.836 0-16-7.163-16-16.001C0 7.162 7.164-.002 16-.002c8.837 0 16 7.164 16 15.999 0 8.838-7.163 16.001-16 16.001zm0-29c-7.18 0-13 5.82-13 12.999 0 7.18 5.82 13.001 13 13.001s13-5.821 13-13.001c0-7.179-5.82-12.999-13-12.999zm0 22.499a9.5 9.5 0 110-18.999 9.5 9.5 0 110 18.999zm0-15.999a6.502 6.502 0 000 13.001 6.502 6.502 0 000-13.001zm0 9.501a3 3 0 11.002-6.002A3 3 0 0116 19z"/></symbol><symbol viewBox="0 0 32 31" id="clock" xmlns="http://www.w3.org/2000/svg"><path d="M30.74 9.503a15.723 15.723 0 00-8.243-8.243c1-.787 2.258-1.26 3.629-1.26A5.874 5.874 0 0132 5.874a5.846 5.846 0 01-1.26 3.629zM30.5 16c0 3.852-1.512 7.343-3.963 9.94l2.029 2.028a1.483 1.483 0 11-2.098 2.097l-2.178-2.178A14.426 14.426 0 0116 30.5c-3.079 0-5.928-.966-8.276-2.603L5.561 30.06a1.5 1.5 0 01-2.122-2.121l2.012-2.012C3.008 23.332 1.5 19.845 1.5 16 1.5 7.992 7.992 1.5 16 1.5S30.5 7.992 30.5 16zM16 4.5C9.649 4.5 4.5 9.648 4.5 16c0 6.351 5.149 11.5 11.5 11.5S27.5 22.351 27.5 16c0-6.352-5.149-11.5-11.5-11.5zm6 13h-6a1.5 1.5 0 01-1.5-1.5V8a1.5 1.5 0 013 0v6.499H22a1.5 1.5 0 010 3.001zM1.287 9.705A5.964 5.964 0 010 6a6 6 0 016-6c1.4 0 2.685.483 3.706 1.287a16.057 16.057 0 00-8.419 8.418z"/></symbol><symbol viewBox="0 0 32 28" id="creativ" xmlns="http://www.w3.org/2000/svg"><path d="M30 23h-9.5v2.5l2 2v.5h-13v-.5l2-2V23H2a1.5 1.5 0 01-1.5-1.501V1.5A1.5 1.5 0 012 0h28a1.5 1.5 0 011.5 1.5v19.999A1.5 1.5 0 0130 23zm-.5-21h-27v17h27V2zM13 9c.414 0 .789.168 1.061.439l.939.939 2.939-2.939A1.499 1.499 0 0120.5 8.5c0 .414-.168.789-.439 1.061l-4 4a1.499 1.499 0 01-2.122 0l-2-2.001A1.5 1.5 0 0113 9z"/></symbol><symbol viewBox="0 0 32 32" id="digital" xmlns="http://www.w3.org/2000/svg"><path d="M30.5 32h-29A1.5 1.5 0 010 30.5v-29A1.5 1.5 0 011.5 0h29A1.5 1.5 0 0132 1.5v29a1.5 1.5 0 01-1.5 1.5zM29 3H3v26h26V3zM6.5 4.5H12a1.5 1.5 0 110 3H7.5V12a1.5 1.5 0 01-3 0V4.5h2zM4.5 20a1.5 1.5 0 113 0v4.499H12v.001a1.5 1.5 0 110 3H4.5V20zM20 4.5h7.5V12a1.5 1.5 0 01-3 0V7.5H20a1.5 1.5 0 010-3zm0 20v-.001h4.5V20a1.5 1.5 0 113 0v7.5H20a1.5 1.5 0 010-3z"/></symbol><symbol viewBox="0 0 16 16" id="dribbble" xmlns="http://www.w3.org/2000/svg"><path d="M15.837 6.404a7.958 7.958 0 00-2.18-4.046A7.935 7.935 0 009.611.177a8.04 8.04 0 00-6.085 1.204 8.082 8.082 0 00-2.159 2.16A7.94 7.94 0 000 8.014a7.906 7.906 0 00.629 3.115A8.012 8.012 0 008 16.016a7.97 7.97 0 003.114-.63 8.02 8.02 0 004.257-4.257A7.964 7.964 0 0016 8.014a7.96 7.96 0 00-.163-1.61zM14.83 7.947c-.099-.022-2.411-.519-4.759-.224-.048-.117-.096-.234-.147-.353a21.085 21.085 0 00-.454-.991c2.698-1.101 3.794-2.686 3.807-2.704a6.804 6.804 0 011.553 4.272zm-2.317-5.059c-.017.026-.99 1.507-3.569 2.473A34.613 34.613 0 006.39 1.375a6.803 6.803 0 016.123 1.513zM6.364 1.381l-.002.001-.02.005c.007-.003.014-.004.022-.006zm-1.279.455a41.078 41.078 0 012.537 3.936c-3.281.872-6.128.838-6.308.834a6.84 6.84 0 013.771-4.77zM1.168 8.014c0-.072.003-.144.005-.216.121.003 3.497.08 7.015-.972.196.382.383.772.554 1.16a8.34 8.34 0 00-.269.082c-3.687 1.192-5.557 4.51-5.557 4.51s.002.001.002.003a6.81 6.81 0 01-1.75-4.567zM8 14.847a6.797 6.797 0 01-4.352-1.566c.09.073.153.12.153.12s1.31-2.857 5.362-4.268l.045-.014c.961 2.498 1.358 4.59 1.459 5.188a6.806 6.806 0 01-2.667.54zm3.818-1.165c-.07-.413-.434-2.418-1.33-4.88 2.206-.353 4.117.251 4.258.298a6.838 6.838 0 01-2.928 4.582z"/></symbol><symbol viewBox="0 0 28 32" id="equalizer" xmlns="http://www.w3.org/2000/svg"><path d="M26.5 16.497h-3a1.5 1.5 0 01-1.5-1.499v-6a1.5 1.5 0 011.5-1.499h3A1.5 1.5 0 0128 8.998v6a1.5 1.5 0 01-1.5 1.499zm-3-15a1.5 1.5 0 013 0v4.501h-3V1.497zm-8 23h-3a1.5 1.5 0 01-1.5-1.499v-6a1.5 1.5 0 011.5-1.5h3a1.5 1.5 0 011.5 1.5v6a1.5 1.5 0 01-1.5 1.499zm-3-23a1.5 1.5 0 013 0v12.501h-3V1.497zm-8 19.001h-3A1.5 1.5 0 010 18.997v-6a1.5 1.5 0 011.5-1.499h3A1.5 1.5 0 016 12.997v6a1.5 1.5 0 01-1.5 1.501zm-3-19.001a1.5 1.5 0 013 0v8.502h-3V1.497zm3 29a1.5 1.5 0 11-3 0v-8.499h3v8.499zm11 0a1.5 1.5 0 11-3 0v-4.5h3v4.5zm11 0a1.5 1.5 0 11-3 0V17.999h3v12.498z"/></symbol><symbol viewBox="0 0 13 26" id="facebook" xmlns="http://www.w3.org/2000/svg"><path d="M12.089.199V4.32s-3.037-.303-3.798.861c-.416.636-.169 2.5-.206 3.838h4.029c-.34 1.564-.584 2.624-.835 3.978H8.063v12.804H2.481V13.047H.106V9.019h2.349c.12-2.946.165-5.864 1.629-7.35C5.728-.002 7.297.199 12.089.199z"/></symbol><symbol viewBox="0 0 16 15" id="google-plus" xmlns="http://www.w3.org/2000/svg"><path d="M13.5 3.717v2.44h-1v-2.44H10v-.998h2.5V.279h1v2.44H16v.998h-2.5zM6.585 1.246c.888.491 1.408 1.288 1.408 2.331 0 .876-.541 1.566-1.239 2.102-.681.522-.81.742-.81 1.186 0 .378.729 1.024 1.111 1.289 1.114.774 1.444 1.493 1.444 2.693 0 1.497-1.444 3.169-4.116 3.169C2.039 14.016 0 12.895 0 11.398c0-1.52 1.866-2.987 4.209-2.987.256 0 .49-.01.732-.01-.321-.307-.574-.688-.574-1.151 0-.275.089-.55.213-.785-.127.009-.257-.012-.391-.012-1.924 0-3.214-1.391-3.214-3.057C.975 1.765 2.756.263 4.648.263h4.22l-.945.983H6.585zM4.656 8.799c-1.62-.017-3.071.97-3.071 2.156 0 1.209 1.17 2.094 2.789 2.094 2.277 0 3.071-.823 3.071-2.032 0-.146-.018-.289-.052-.428-.178-.685-.808-1.024-1.688-1.624a3.596 3.596 0 00-1.049-.166zm1.82-5.203C6.287 2.194 5.207 1.068 4.12 1.037 3.033 1.005 2.304 2.078 2.492 3.48 2.68 4.883 3.713 6.046 4.8 6.077c1.087.032 1.863-1.079 1.676-2.481z"/></symbol><symbol viewBox="0 0 32 31" id="home" xmlns="http://www.w3.org/2000/svg"><path d="M32 16.5a1.5 1.5 0 01-1.5 1.5 1.49 1.49 0 01-1.02-.406l-.003.004L16.038 4.159 16 4.122 2.554 17.569l-.001-.001a1.5 1.5 0 11-2.092-2.149L14.919.96C15.192.677 15.575.5 16 .5h.001c.026 0 .052 0 .079.002l.012.001a.78.78 0 01.068.006h.004c.367.04.694.212.933.468l.001-.001L23 6.878V5.5a1.5 1.5 0 113 0v4.378l5.598 5.598-.004.004c.25.268.406.625.406 1.02zM29 19v10.5a1.5 1.5 0 01-1.5 1.5h-3V19h-6v12h-14A1.5 1.5 0 013 29.5V19L16 6l13 13zm-15.5 0h-6v6h6v-6z"/></symbol><symbol viewBox="0 0 26 26" id="instagram" xmlns="http://www.w3.org/2000/svg"><path d="M22.7 25.8H3.5a3.2 3.2 0 01-3.2-3.2V3.4A3.2 3.2 0 013.5.2h19.2a3.2 3.2 0 013.2 3.2v19.2a3.2 3.2 0 01-3.2 3.2zM13.1 8.039a4.957 4.957 0 00-4.498 2.88h-.005l-.022.055a5.015 5.015 0 00-.128.322c-.019.052-.04.103-.057.155a4.386 4.386 0 00-.095.34c-.014.054-.03.106-.042.16a4.952 4.952 0 00-.061.368c-.007.05-.017.099-.023.15a4.96 4.96 0 109.862 0c-.006-.051-.016-.1-.023-.15a4.952 4.952 0 00-.061-.368c-.012-.054-.028-.106-.042-.16a4.386 4.386 0 00-.095-.34c-.017-.052-.038-.103-.057-.155a5.015 5.015 0 00-.128-.322l-.022-.055h-.005a4.957 4.957 0 00-4.498-2.88zm9.92-3.68a1.28 1.28 0 00-1.28-1.279h-2.56a1.28 1.28 0 00-1.28 1.279V6.92c0 .707.573 1.28 1.28 1.28h2.56a1.28 1.28 0 001.28-1.28V4.359zm0 6.56h-2.36a7.839 7.839 0 01-7.56 9.92 7.839 7.839 0 01-7.56-9.92H3.18v10.72a1.28 1.28 0 001.28 1.281h17.28a1.28 1.28 0 001.28-1.281v-10.72z"/></symbol><symbol viewBox="0 0 30 30" id="picture" xmlns="http://www.w3.org/2000/svg"><path d="M30 23.999c0 .651-.419 1.2-1 1.407v1.683a1.498 1.498 0 01-.5 2.91c-.652 0-1.202-.42-1.408-1.001h-1.684A1.497 1.497 0 0124 29.999c-.652 0-1.202-.42-1.408-1.001h-1.684a1.497 1.497 0 01-1.408 1.001c-.652 0-1.201-.42-1.408-1.001h-1.684A1.497 1.497 0 0115 29.999c-.652 0-1.202-.42-1.408-1.001h-1.684a1.496 1.496 0 01-1.408 1.001c-.652 0-1.202-.42-1.408-1.001H7.408A1.496 1.496 0 016 29.999c-.652 0-1.202-.42-1.408-1.001H2.908A1.497 1.497 0 011.5 29.999a1.498 1.498 0 01-.5-2.91v-1.683c-.581-.207-1-.756-1-1.407 0-.654.419-1.202 1-1.409v-1.683c-.581-.208-1-.757-1-1.409 0-.651.419-1.201 1-1.408v-1.684c-.581-.206-1-.755-1-1.407a1.5 1.5 0 011-1.41v-1.683c-.581-.206-1-.755-1-1.408 0-.652.419-1.202 1-1.407V7.406c-.581-.207-1-.756-1-1.408 0-.652.419-1.202 1-1.408V2.905C.419 2.7 0 2.15 0 1.498A1.5 1.5 0 011.5-.001c.652 0 1.201.417 1.408 1h1.684a1.493 1.493 0 012.816 0h1.684a1.493 1.493 0 012.816 0h1.684c.206-.583.756-1 1.408-1 .652 0 1.201.417 1.408 1h1.684c.207-.583.756-1 1.408-1 .652 0 1.201.417 1.408 1h1.684c.206-.583.756-1 1.408-1 .652 0 1.201.417 1.408 1h1.684c.206-.583.756-1 1.408-1 .828 0 1.5.67 1.5 1.499 0 .652-.419 1.202-1 1.407V4.59c.581.206 1 .756 1 1.408 0 .652-.419 1.201-1 1.408v1.685c.581.205 1 .755 1 1.407 0 .653-.419 1.202-1 1.408v1.683a1.5 1.5 0 011 1.41c0 .652-.419 1.201-1 1.407v1.684c.581.207 1 .757 1 1.408 0 .652-.419 1.201-1 1.409v1.683c.581.207 1 .755 1 1.409zM26 3.997H4v22.001h22V3.997zM13 19.998l7-8.499 4.5 7v5.999h-19l6-5.999 1.5 1.499zm-3-7a3 3 0 110-6 3 3 0 010 6z"/></symbol><symbol viewBox="0 0 20 26" id="pin" xmlns="http://www.w3.org/2000/svg"><path d="M10 25.8S.4 15.101.4 9.8 4.698.2 10 .2s9.6 4.299 9.6 9.6c0 5.301-9.6 16-9.6 16zm0-22.4a6.4 6.4 0 100 12.8 6.4 6.4 0 000-12.8zm0 9.6a3.2 3.2 0 110-6.4 3.2 3.2 0 010 6.4z"/></symbol><symbol viewBox="0 0 21 26" id="pinterest" xmlns="http://www.w3.org/2000/svg"><path d="M9.051 16.854c-.209.833-.42 1.706-.638 2.56-.215.842-.405 1.696-.718 2.47-.519 1.281-1.178 2.519-2.043 3.521-.575.667-.453.401-.626.365-.132-.027-.143-.157-.169-.345-.141-1.018-.045-2.195.007-3.339.06-1.304.334-2.388.589-3.471.484-2.063.946-4.087 1.435-6.164.032-.138.12-.366.09-.445-.222-.577-.366-1.095-.429-1.7a5.42 5.42 0 01.139-1.944c.277-1.058.913-1.995 1.894-2.338.624-.216 1.315-.118 1.735.132.432.259.729.667.867 1.246.148.615.039 1.351-.08 1.891-.267 1.219-.618 2.134-.937 3.31-.158.583-.337 1.182-.189 1.812.136.578.437.976.847 1.275.426.31.93.479 1.625.455 1.228-.043 2.081-.828 2.651-1.568.913-1.185 1.465-2.784 1.675-4.686.067-.614.117-1.319.07-2.014-.088-1.284-.489-2.317-1.127-3.117-.606-.762-1.466-1.369-2.512-1.711-1.037-.338-2.472-.451-3.747-.233-2.318.397-3.952 1.714-4.915 3.533a7.082 7.082 0 00-.837 3.41c0 1.051.259 1.865.678 2.5.133.201.328.367.458.597.185.326-.028.811-.119 1.164-.11.425-.122 1.012-.618 1.022-.206.004-.464-.146-.638-.243-1.305-.721-2.097-2.033-2.422-3.734a8.921 8.921 0 010-3.238 9.232 9.232 0 014.396-6.144C6.559 1.023 7.818.56 9.35.337a16.318 16.318 0 011.605-.131 9.637 9.637 0 014.326.809 8.839 8.839 0 012.98 2.146c.838.915 1.448 1.979 1.834 3.309.202.692.398 1.432.398 2.287 0 .858-.181 1.613-.308 2.368-.474 2.828-1.819 5.141-3.838 6.458a6.611 6.611 0 01-1.754.809c-.667.194-1.428.34-2.243.283a4.586 4.586 0 01-1.983-.577c-.54-.305-.994-.679-1.316-1.244z"/></symbol><symbol viewBox="0 0 18 18" id="search" xmlns="http://www.w3.org/2000/svg"><path d="M17.317 14.983a1.65 1.65 0 01-2.334 2.333l-4.836-4.835A6.56 6.56 0 016.8 13.4a6.6 6.6 0 116.6-6.6 6.56 6.56 0 01-.919 3.347l4.836 4.836zM6.8 1.85a4.95 4.95 0 100 9.9 4.95 4.95 0 000-9.9z"/></symbol><symbol viewBox="0 0 32 32" id="seo" xmlns="http://www.w3.org/2000/svg"><path d="M31.065 25.889l-14.471 5.988a1.489 1.489 0 01-1.188 0L.935 25.889A1.5 1.5 0 010 24.5v-23A1.5 1.5 0 012.073.114h.001l.002.001.013.005L16 5.877 29.911.12l.013-.005.003-.001A1.5 1.5 0 0132 1.5v23a1.5 1.5 0 01-.935 1.389zM14.5 8.503L3 3.744v19.753l11.5 4.759V8.503zM29 3.744L17.5 8.503v19.753L29 23.497V3.744zm-9.121 6.89l5.5-2.5a1.5 1.5 0 011.242 2.731l-5.5 2.5a1.5 1.5 0 01-1.242-2.731zm0 5.5l5.5-2.5a1.5 1.5 0 011.242 2.731l-5.5 2.501v-.001a1.5 1.5 0 01-1.242-2.731zm0 5.5l5.5-2.5a1.5 1.5 0 011.242 2.731l-5.5 2.5a1.5 1.5 0 01-1.242-2.731zM6 8c.221 0 .431.048.621.134l5.5 2.5a1.501 1.501 0 01-1.242 2.731l-5.5-2.5A1.5 1.5 0 016 8zm0 5.5c.221 0 .431.048.621.134l5.5 2.5a1.5 1.5 0 01-1.242 2.731v.001l-5.5-2.501A1.5 1.5 0 016 13.5zM6 19c.221 0 .431.048.621.134l5.5 2.5a1.501 1.501 0 01-1.242 2.731l-5.5-2.5A1.5 1.5 0 016 19z"/></symbol><symbol viewBox="0 0 63 61" id="speech" xmlns="http://www.w3.org/2000/svg"><path d="M60 35.998h-2v5.001c0 .205-.021.409-.061.604-.028.136-.076.263-.122.392-.02.058-.03.117-.053.17-.048.115-.115.22-.176.327-.035.06-.061.126-.1.184a2.99 2.99 0 01-.334.403c-.012.013-.02.029-.033.04a2.983 2.983 0 01-2.084.876l-.037.002a2.986 2.986 0 01-2.121-.878l-7.122-7.121H18a3 3 0 01-3-3v-30a3 3 0 013-3.001h42a3 3 0 013 3.001v30a3 3 0 01-3 3zm-15.485 3l6.326 6.327.008-.008A5.97 5.97 0 0055 46.999v2a3 3 0 01-3 2.999H20.243l-8.122 8.122a2.995 2.995 0 01-2.121.879c-.013 0-.024-.004-.037-.004a2.993 2.993 0 01-2.084-.875c-.013-.013-.021-.029-.033-.041a2.938 2.938 0 01-.334-.404c-.039-.057-.064-.122-.099-.183-.062-.108-.129-.212-.177-.326-.023-.054-.033-.114-.053-.17-.046-.13-.094-.256-.122-.394A2.999 2.999 0 017 57.997v-5.999H2.996A3 3 0 010 48.999V14.998a3 3 0 013-3h9v21a6 6 0 006 6h26.515z"/></symbol><symbol viewBox="0 0 17 15" id="speech-bubble" xmlns="http://www.w3.org/2000/svg"><path d="M9.416 12.358c-.573 0-1.134-.165-1.676-.243-2.191 2.771-5.647 2.225-5.647 2.225 2.441-1.155 2.391-3.069 1.957-3.324C2.134 9.89.982 8.176.982 6.255c0-3.39 3.727-6.139 8.434-6.139 4.708 0 7.577 2.749 7.577 6.139 0 3.392-2.869 6.103-7.577 6.103zM5.242 4.875a1.5 1.5 0 100 3 1.5 1.5 0 000-3zm3.75 0a1.5 1.5 0 100 3 1.5 1.5 0 000-3zm3.75 0a1.5 1.5 0 100 3 1.5 1.5 0 000-3z"/></symbol><symbol viewBox="0 0 10 17" id="tumblr" xmlns="http://www.w3.org/2000/svg"><path d="M10.009 15.145c-.68.321-1.297.548-1.849.678a7.792 7.792 0 01-1.789.195 4.863 4.863 0 01-1.718-.276 4.18 4.18 0 01-1.431-.79c-.396-.343-.669-.708-.823-1.092-.152-.386-.228-.944-.228-1.677V6.569H.007V4.302c.626-.204 1.351-.497 1.796-.879a4.363 4.363 0 001.075-1.375c.27-.534.457-1.213.558-2.04h2.265v3.704h3.682v2.857H5.701v4.105c0 .929-.012 1.464.086 1.727.097.262.341.534.607.691a2.3 2.3 0 001.209.319c.806 0 1.608-.264 2.406-.791v2.525z"/></symbol><symbol viewBox="0 0 26 22" id="twitter" xmlns="http://www.w3.org/2000/svg"><path d="M17.513.601c2.034-.036 3.117.705 4.151 1.648.878-.076 2.019-.566 2.691-.908l.653-.357c-.384 1.037-.904 1.849-1.704 2.466-.178.136-.354.321-.577.408v.013c1.14-.011 2.08-.526 2.973-.805v.013c-.469.745-1.104 1.502-1.781 2.044l-.82.651c.015 1.207-.018 2.359-.243 3.373-1.312 5.895-4.788 9.898-10.289 11.612-1.976.615-5.168.868-7.432.306-1.122-.278-2.136-.593-3.087-1.008a12.443 12.443 0 01-1.487-.767L.1 19.009c.51.015 1.108.156 1.678.064.517-.084 1.023-.062 1.5-.166 1.188-.261 2.243-.606 3.151-1.137.441-.259 1.11-.561 1.423-.933-.59.011-1.125-.127-1.563-.281-1.699-.6-2.688-1.703-3.332-3.36.515.057 1.998.191 2.345-.102-.648-.036-1.271-.411-1.717-.689-1.367-.856-2.481-2.29-2.473-4.497l.538.255c.344.145.693.222 1.102.307.173.036.519.137.718.063h-.026c-.264-.307-.695-.512-.961-.843C1.606 6.601.785 4.924 1.304 2.926c.132-.507.341-.954.564-1.367l.026.012c.102.214.33.371.474.55.448.555 1 1.054 1.563 1.494 1.918 1.501 3.645 2.422 6.419 3.104a9.983 9.983 0 002.358.307c-.236-.687-.16-1.8.025-2.465.468-1.674 1.483-2.879 2.973-3.525a6.33 6.33 0 011.166-.359l.641-.076z"/></symbol><symbol viewBox="0 0 32 24" id="users" xmlns="http://www.w3.org/2000/svg"><path d="M31.95 22.503v.002a.993.993 0 01-.995.992h-7.412c.556-.123.972-.614.972-1.205l-.001-.002h.001s0-4.504-3.301-6.142c-1.412-.7-1.505-.566-2.206-.732l.02-1.95s-.771-.588-1.011-2.431c-.482.14-.641-.564-.67-1.012-.026-.431-.279-1.783.31-1.661-.121-.902-.207-1.715-.165-2.147.148-1.512 1.61-3.093 3.861-3.207 2.649.114 3.698 1.694 3.845 3.206.043.432-.051 1.246-.172 2.146.589-.12.333 1.228.304 1.661-.025.448-.188 1.149-.669 1.009-.241 1.843-1.012 2.426-1.012 2.426l.018 1.948s.488.278 2.546 1.127c2.058.851 1.412.214 3.088 1.045 2.649 1.314 2.649 4.927 2.649 4.927zM17.023 15.84c2.262.935 1.552.235 3.395 1.15 2.912 1.443 2.912 5.415 2.912 5.415h-.001v.003a1.09 1.09 0 01-1.093 1.089H1.093A1.09 1.09 0 010 22.408v-.003h-.001s0-3.972 2.912-5.417c1.843-.913 1.133-.171 3.395-1.106 2.262-.933 2.798-1.26 2.798-1.26l.021-2.152s-.847-.646-1.11-2.67c-.53.153-.705-.621-.736-1.113-.029-.475-.307-1.96.339-1.825-.132-.992-.227-1.886-.18-2.359.162-1.664 1.769-3.4 4.244-3.528 2.911.126 4.065 1.863 4.226 3.525.047.475-.056 1.369-.189 2.359.647-.132.366 1.35.334 1.825-.028.493-.207 1.263-.736 1.11-.264 2.026-1.111 2.666-1.111 2.666l.019 2.142s.536.304 2.798 1.238z"/></symbol><symbol viewBox="0 0 20 12" id="view" xmlns="http://www.w3.org/2000/svg"><path d="M19.71 5.776l-.002.024-.001.013-.002.017-.003.021v.002a.757.757 0 01-.203.41c-.204.247-.427.479-.651.707-1.212 1.23-2.602 2.327-4.123 3.122-.973.509-2.012.919-3.09 1.116a8.971 8.971 0 01-3.55-.05c-2.04-.444-3.887-1.545-5.503-2.863-.75-.611-1.488-1.28-2.108-2.032-.272-.329-.272-.719 0-1.048.203-.247.426-.48.651-.708 1.211-1.229 2.601-2.326 4.123-3.122C6.22.877 7.259.466 8.337.269a8.971 8.971 0 013.55.051c2.04.443 3.887 1.545 5.503 2.862.75.611 1.488 1.281 2.108 2.033a.754.754 0 01.209.45l.001.012.001.025a.435.435 0 01.002.037l-.001.037zM9.99 1.942a3.645 3.645 0 100 7.29 3.645 3.645 0 000-7.29zm0 5.467a1.822 1.822 0 110-3.643 1.822 1.822 0 010 3.643z"/></symbol><symbol viewBox="0 0 32 32" id="web" xmlns="http://www.w3.org/2000/svg"><path d="M30.5 32h-29A1.5 1.5 0 010 30.5v-29A1.5 1.5 0 011.5 0h29A1.5 1.5 0 0132 1.5v29a1.5 1.5 0 01-1.5 1.5zM29 3H3v26h26V3zM5.215 16.239v-.002l4-2.499v.001a1.49 1.49 0 011.625.036l.006-.009 6.631 4.42 7.638-5.391a1.5 1.5 0 111.763 2.426h.001l-8.5 6.001-.001-.001c-.246.179-.55.284-.878.284-.321 0-.618-.1-.861-.272l-6.657-4.438-3.135 1.96a1.5 1.5 0 11-1.632-2.516z"/></symbol><symbol viewBox="0 0 16 12" id="youtube" xmlns="http://www.w3.org/2000/svg"><path d="M13.537.523L8.312.518 2.883.523C1.525.523 0 1.429 0 2.759v6.618c0 1.329 1.525 2.14 2.883 2.14h10.654c1.359 0 2.459-.811 2.459-2.14V2.759c0-1.33-1.1-2.236-2.459-2.236zM6.964 8.566l-.032-5.04 3.508 2.542-3.476 2.498z"/></symbol></svg>